<svg width="42" height="39" viewBox="0 0 42 39" fill="none" xmlns="http://www.w3.org/2000/svg">
  <path fill-rule="evenodd" clip-rule="evenodd" d="M0 6.5C0 4.77609 0.680768 3.12279 1.89254 1.90381C3.10431 0.68482 4.74783 0 6.46154 0H35.5385C37.2522 0 38.8957 0.68482 40.1075 1.90381C41.3192 3.12279 42 4.77609 42 6.5V32.5C42 34.2239 41.3192 35.8772 40.1075 37.0962C38.8957 38.3152 37.2522 39 35.5385 39H6.46154C4.74783 39 3.10431 38.3152 1.89254 37.0962C0.680768 35.8772 0 34.2239 0 32.5V6.5ZM8.55077 8.60167C8.85365 8.29736 9.26423 8.12643 9.69231 8.12643C10.1204 8.12643 10.531 8.29736 10.8338 8.60167L15.68 13.4767C15.9825 13.7814 16.1524 14.1944 16.1524 14.625C16.1524 15.0556 15.9825 15.4686 15.68 15.7733L10.8338 20.6483C10.5276 20.9354 10.1226 21.0916 9.70411 21.0842C9.28561 21.0768 8.88632 20.9062 8.59035 20.6085C8.29439 20.3108 8.12485 19.9091 8.11747 19.4881C8.11009 19.0671 8.26543 18.6597 8.55077 18.3517L12.2554 14.625L8.55077 10.8983C8.24826 10.5936 8.07834 10.1806 8.07834 9.75C8.07834 9.31937 8.24826 8.90635 8.55077 8.60167ZM17.7692 17.875C17.3408 17.875 16.9299 18.0462 16.627 18.351C16.324 18.6557 16.1538 19.069 16.1538 19.5C16.1538 19.931 16.324 20.3443 16.627 20.649C16.9299 20.9538 17.3408 21.125 17.7692 21.125H24.2308C24.6592 21.125 25.0701 20.9538 25.373 20.649C25.676 20.3443 25.8462 19.931 25.8462 19.5C25.8462 19.069 25.676 18.6557 25.373 18.351C25.0701 18.0462 24.6592 17.875 24.2308 17.875H17.7692Z" fill="#1677ff"/>
</svg>
